<svg xmlns="http://www.w3.org/2000/svg" xmlns:xlink="http://www.w3.org/1999/xlink" style="width: 0; height: 0; visibility: hidden; position: absolute;" aria-hidden="true"><symbol  viewBox='0 0 24 24' id='arrow'>
    <path stroke-linecap="round" stroke-linejoin="round" d="m14 5 7 7m0 0-7 7m7-7H3"></path>
  </symbol><symbol  viewBox='0 0 512 512' id='bestseller'>
    <path d="M192.5 1.3c-11.8 3.9-13.8 5.9-31.4 30.5-6.8 9.6-13.8 18.4-15.5 19.7-1.9 1.4-12.1 5.1-25.6 9.3-12.4 3.8-24.3 7.8-26.5 9-5.8 3-12 9.8-15.2 16.7-2.7 6-2.7 6.1-3.3 33-.4 19.8-.9 27.6-1.9 29.4-.7 1.3-8 11.3-16.2 22.2-16.9 22.6-18.5 26.1-17.7 38.3.6 9.1 1.9 11.5 18.3 35.1 7.3 10.4 13.6 20.1 14.1 21.5.4 1.4.8 14.9.8 30l.1 27.5 2.6 5.6c3.1 6.6 9 12.9 14.9 15.9 2.3 1.2 13.8 5.4 25.7 9.4 21.2 7.3 28.3 10.9 29.1 14.8.2.9-2.2 6-5.2 11.4-3.1 5.5-5.6 10.6-5.6 11.5 0 3.3 4 6.9 7.5 6.9 3.7 0 7-3.2 10.6-10.1 1.1-2.2 2.3-3.9 2.7-3.9.5 0 4.3 5.2 8.6 11.5 10.1 14.8 15.9 19.2 28.2 21.4 7.5 1.4 12.3.5 27.2-4.8 6.1-2.2 11.2-3.8 11.2-3.5 0 .5-26.4 46.5-39.8 69.3l-5.5 9.4-9.8-19.6c-6.2-12.2-10.7-20-12-20.8-1.6-.8-7.3-.8-23 .2-11.5.7-21.2 1-21.5.7-.3-.4 2.6-6.2 6.6-13 8.4-14.4 8.9-16.3 6-20.1-2.8-3.5-7.7-3.7-10.7-.5-3.6 3.9-23.4 39.1-24 42.6-.4 2.3 0 3.8 1.2 5.2 2.2 2.5 7.4 2.5 36.5.5 11.3-.7 20.5-1.3 20.6-1.2.1.1 5.5 10.8 12.1 23.7 12.7 25.3 14.4 27.4 19.9 25.5 2.2-.8 8.1-10.3 33.8-54.8l31-53.7h3.5c2 0 4.2.4 5 .9.8.5 15 24.5 31.7 53.3 20.7 35.9 31 52.8 32.7 53.8 1.9 1.1 3.3 1.2 5.4.5 2.4-.9 4.5-4.4 14.8-24.7 6.6-13 12.2-23.9 12.5-24.2.3-.2 9.7.2 21 .9 28.9 2 33.5 2 36-.5 1.1-1.1 2-3 2-4.3 0-2.1-21.5-40.3-24.7-44-3.7-4.1-12.3-.4-12.3 5.4 0 1.3 3.4 8.2 7.5 15.4 4.1 7.1 7.5 13.2 7.5 13.5 0 .3-9.9-.1-22.1-.9-22-1.3-22-1.3-24.3.8-1.2 1.1-6.2 10.4-11.1 20.6-4.8 10.2-9.1 18.5-9.4 18.5-.8-.1-43.4-74.1-42.9-74.5.2-.2 3.3.7 6.9 2 10.4 3.7 18.1 4.8 24.7 3.4 12-2.4 17-6.5 29.7-24.3 5-6.9 9.3-12.5 9.7-12.6.4 0 2.5 3.4 4.8 7.5s5 8 6 8.5c3.1 1.6 7.5 1.2 9.5-1 3-3.3 2.2-7-3.8-17.3-3.1-5.3-5.7-10.1-5.7-10.6 0-2.1 4.8-4 26.5-10.6 24.6-7.5 30-10 35.6-16.3 7.4-8.4 8.2-12.2 8.8-42.2.6-23.2.9-26.9 2.5-29.9 1-1.9 8-11.6 15.4-21.5 15.1-20.1 18.1-25.9 18.2-35.2 0-10.4-2-14.7-16.6-35.5-7.5-10.7-14.3-20.8-15.2-22.4-1.4-2.6-1.6-6.4-1.3-28.7.2-21.6 0-26.6-1.4-31.4-2-6.9-5.1-12-9.9-16.2-5.2-4.6-7.4-5.5-31.3-13.8-11.8-4.1-22.8-8.2-24.5-9.2-1.7-1-7.4-8.2-13.5-17.2-5.9-8.5-12.4-18-14.5-21.1-6.4-9.2-16.6-15.4-27.5-16.5-5.4-.6-7.6-.1-30.4 7.5-13.5 4.4-25.9 8.1-27.7 8.1-1.7 0-13.4-3.6-25.9-8.1-24.8-8.8-32.7-10.2-40.8-7.6zm35.7 21.9c31.5 11.2 30.9 11.2 62.1.4 33.4-11.5 32-12 53.2 18.9 11.5 16.8 16.1 22.7 19.7 25.3 3.3 2.3 12 5.9 28 11.4 13.3 4.5 24.8 9.1 26.7 10.5 1.8 1.4 4.2 4.6 5.3 7 1.8 4.1 1.9 6.4 1.7 30.6-.3 22.9-.1 26.8 1.4 31.2 1 2.8 7.5 13.2 14.8 23.5 7.2 10.2 13.9 20.2 15 22.2 2.1 4 2.5 11.1.9 15.2-.5 1.4-7.1 10.7-14.6 20.7-14.6 19.4-16.9 22.9-18.6 28.1-.6 1.8-1.4 15.1-1.7 29.8-.6 24.9-.8 26.8-2.9 30.7-1.2 2.4-3.9 5.4-6 6.7-2 1.3-14.3 5.6-27.2 9.5-15.1 4.6-24.9 8.1-27.5 9.9-2.4 1.6-8.9 9.3-16.2 19.2-19.3 25.9-19.8 26.5-23.9 28.5-7 3.3-11 2.6-35.7-6.3-30.3-10.9-29.5-10.9-59.1-.7-25.5 8.9-26 9-31.4 7.5-6.5-1.7-10.3-5.8-23.4-25.4-13-19.4-16.3-23.5-21.9-27.2-2.1-1.2-14.2-5.9-27-10.4-25.2-8.7-27.6-10.1-31.1-17.8-1.8-3.9-1.9-6.4-1.7-31 .4-32.2 1.6-28.3-17.6-55.7-7.4-10.7-13.9-20.5-14.5-22-1.4-3.7-1.2-10 .4-13.9.8-1.9 7.6-11.6 15.1-21.6 19.8-26.3 18.9-23.7 19.5-56.5.6-30 .8-30.7 7.5-36.3 2.8-2.2 9-4.6 25.8-9.7 23.9-7.3 29.7-9.8 34.9-15.2 1.8-1.9 9.4-11.8 16.8-22.1C189.6 18 193 15 201.2 15c2.2 0 13.6 3.5 27 8.2z"></path><path d="M242.5 48c-36.9 3.3-71.4 19.2-98.9 45.9-25.5 24.7-41.8 55.6-47.7 90.2-1.8 10.6-2.1 15-1.6 30.4.8 26.5 5.1 43.8 16.7 67 13.9 27.8 36.7 52.1 63.7 68.2 34.8 20.7 77.8 27.4 117.1 18.2 54.4-12.6 100.3-54.5 118.2-107.6 6.3-19 7.4-26.6 7.4-50.8 0-19-.3-23.4-2.2-32.1-6.5-29.8-21.9-59.2-41.5-79.2-5.1-5.1-6.7-6.2-9.4-6.2-4.1 0-7.3 3-7.3 7 0 2.2 1.5 4.6 6.2 9.7 19.1 21 31.1 43.8 37 70.3 2 9.1 2.3 13.2 2.3 30.5 0 15.7-.4 21.8-1.9 28.5-9.9 45.4-39.2 83.2-80.4 103.9-36.6 18.3-80.4 20-119.1 4.5-9.6-3.8-22.8-11-31-17l-5.1-3.6 2.5-2c2.3-1.8 2.5-2.5 2.5-10.9V304h2.9c1.6 0 6.5.7 10.8 1.5 7.2 1.4 10.4 2.7 21.8 8.8 4 2.2 4.5 2.2 60.5 2.2h56.5l4.8-2.4c12.2-6.1 17.9-20.1 12.4-31-1.4-2.8-1.3-3.1 1-5.3 6.5-5.9 9.1-18.3 5.7-26.7l-1.5-3.9 3.5-4.6c4.6-6 6.3-13.6 4.7-20.3-.7-2.6-1.7-5.3-2.3-6-.7-.9 0-2.4 2.4-5.3 7.8-9 7.8-22 0-31-6.8-8-6.6-8-46.2-8-19.2 0-35-.3-35-.8 0-.4.7-3.9 1.5-7.7 3.2-15 1.6-38.7-3.8-57.5-4.2-14.6-15.8-21.3-29-16.6-10.5 3.8-13.8 9.4-14.8 25.3-.5 8.8-1.2 12.3-3.3 16.8-3.8 8.3-13.1 17.3-28.6 27.8-7.4 5-15.5 10.6-17.9 12.4-2.4 1.8-4.8 3.3-5.2 3.3-.5 0-.9-3.3-.9-7.4 0-6.9-.2-7.6-2.6-9.5-2.5-2-3.9-2.1-25.5-2.1-12.6 0-22.9-.3-22.9-.7 0-.4 2-4.8 4.4-9.8 26.4-53.8 86-88 144.3-82.5 24 2.2 47 9.6 64.5 20.6 2.1 1.3 5.1 2.4 6.7 2.4 6.3 0 9.4-7.8 4.9-12.3-3.1-3.1-24.5-13.9-33.8-17-22.4-7.6-45.4-10.6-67.5-8.7zm9.9 56.3c1.6 1.6 3.1 5.5 4.7 11.8 2 8 2.4 11.9 2.4 26.4 0 15.8-.2 17.7-2.9 26.7-3 10.3-2.9 14 .2 15.7 1 .5 19.8 1.3 42.3 1.7 38.8.6 40.5.7 42.7 2.7 3.1 2.9 3 9-.3 12.2-2.3 2.4-2.9 2.5-15.5 2.5s-13.2.1-15.5 2.5c-1.4 1.3-2.5 3.6-2.5 5s1.1 3.7 2.5 5c2.2 2.3 3.1 2.5 12.5 2.5 9.9 0 10.2.1 13.1 2.9 4.8 4.8 3.6 11.1-2.6 13.7-2.1.8-6.9 1.4-12.2 1.4-7.5 0-9 .3-11 2.2-2.4 2.3-3 5.7-1.3 8.8 1.4 2.5 6.3 4 13.5 4 5.1 0 6.5.4 8.2 2.2 3.5 3.8 3.4 8.8-.2 12.3-2.2 2.3-3.1 2.5-12.3 2.5-8.5 0-10.3.3-12.6 2.1-1.8 1.4-2.6 3-2.6 5.3 0 5.7 1.8 7 10.9 7.6 8.7.7 11.4 2.1 12.6 6.7.9 3.8-1.2 7.9-5.1 9.8-3 1.4-9.4 1.5-56.1 1.3l-52.8-.3-6.6-3.8c-8-4.5-14.1-6.4-26.2-8l-9.2-1.3v-92.8l7-5.9c3.8-3.2 14.3-10.8 23.2-16.8 8.9-6 18.8-13.5 22.1-16.7 11.8-11.4 17.1-22.5 17.8-37.7.7-12.1 1-13.2 4.2-14.9 3.7-2.1 4.9-2 7.6.7zM155 241v70h-2.9c-2.3 0-4.1-1.2-8.1-5.8-15.1-16.8-27.3-41.9-32.7-67.2-2.6-12.2-2.5-44.9.1-57 1-4.7 2-8.8 2.3-9.3.2-.4 9.6-.7 20.9-.7H155v70z"></path><path d="M127.4 204.3C122 209 125 217 132.1 217c6.6 0 9.5-8.8 4.3-12.9-3.4-2.7-5.7-2.6-9 .2z"></path>
  </symbol><symbol  viewBox='0 0 463 463' id='birthday'>
    <path d="M423.5 188H359v-72.5a7.5 7.5 0 0 0-7.5-7.5H335v-9.909c13.759-3.374 24-15.806 24-30.591 0-4.422-1.349-12.627-13.013-32.734-6.078-10.479-12.064-19.164-12.316-19.529a7.5 7.5 0 0 0-12.342 0c-.252.365-6.238 9.05-12.317 19.529C297.349 54.873 296 63.078 296 67.5c0 14.785 10.241 27.216 24 30.591V108h-16.5a7.5 7.5 0 0 0-7.5 7.5V188h-33v-72.5a7.5 7.5 0 0 0-7.5-7.5H239v-9.909c13.759-3.374 24-15.806 24-30.591 0-4.422-1.349-12.627-13.013-32.734-6.078-10.479-12.064-19.164-12.316-19.529a7.5 7.5 0 0 0-12.342 0c-.252.365-6.238 9.05-12.316 19.529C201.349 54.873 200 63.078 200 67.5c0 14.785 10.241 27.216 24 30.591V108h-16.5a7.5 7.5 0 0 0-7.5 7.5V188h-33v-72.5a7.5 7.5 0 0 0-7.5-7.5H143v-9.909c13.759-3.374 24-15.806 24-30.591 0-4.422-1.349-12.627-13.013-32.734-6.078-10.479-12.064-19.164-12.316-19.529a7.5 7.5 0 0 0-12.342 0c-.252.365-6.238 9.05-12.316 19.529C105.349 54.873 104 63.078 104 67.5c0 14.785 10.241 27.216 24 30.591V108h-16.5a7.5 7.5 0 0 0-7.5 7.5V188H39.5C17.72 188 0 205.72 0 227.5v216a7.5 7.5 0 0 0 7.5 7.5h448a7.5 7.5 0 0 0 7.5-7.5v-216c0-21.78-17.719-39.5-39.5-39.5zM311 67.5c0-5.464 7.752-20.466 16.501-34.368C336.25 47.028 344 62.028 344 67.5c0 6.396-3.666 11.942-9 14.678V67.5a7.5 7.5 0 0 0-15 0v14.679c-5.334-2.737-9-8.283-9-14.679zm-96 0c0-5.464 7.752-20.466 16.501-34.368C240.25 47.028 248 62.028 248 67.5c0 6.396-3.666 11.942-9 14.678V67.5a7.5 7.5 0 0 0-15 0v14.678c-5.334-2.736-9-8.282-9-14.678zm-96 0c0-5.464 7.752-20.466 16.501-34.368C144.25 47.028 152 62.028 152 67.5c0 6.396-3.666 11.942-9 14.678V67.5a7.5 7.5 0 0 0-15 0v14.678c-5.334-2.736-9-8.282-9-14.678zM39.5 247.869C45.282 254.672 53.893 259 63.5 259s18.218-4.328 24-11.131c5.782 6.803 14.393 11.131 24 11.131s18.218-4.328 24-11.131c5.782 6.803 14.393 11.131 24 11.131s18.218-4.328 24-11.131c5.782 6.803 14.393 11.131 24 11.131s18.218-4.328 24-11.131c5.782 6.803 14.393 11.131 24 11.131s18.218-4.328 24-11.131c5.782 6.803 14.393 11.131 24 11.131s18.218-4.328 24-11.131c5.782 6.803 14.393 11.131 24 11.131s18.218-4.328 24-11.131c5.782 6.803 14.393 11.131 24 11.131s18.218-4.328 24-11.131c5.782 6.803 14.393 11.131 24 11.131.169 0 .334-.014.5-.025v17.05c-.167-.011-.333-.025-.5-.025a7.51 7.51 0 0 0-7.5 7.5 7.51 7.51 0 0 0 7.5 7.5c.167 0 .334-.014.5-.025v41.051c-.166-.011-.331-.025-.5-.025-8.281 0-12.848 3.037-16.183 5.255-2.662 1.77-4.128 2.745-7.877 2.745s-5.215-.975-7.876-2.745c-3.335-2.218-7.902-5.255-16.183-5.255-8.274 0-12.836 3.039-16.168 5.258-2.654 1.768-4.117 2.742-7.853 2.742-3.734 0-5.196-.974-7.849-2.742-3.331-2.219-7.893-5.258-16.166-5.258s-12.834 3.04-16.165 5.259c-2.653 1.768-4.114 2.741-7.847 2.741-3.724 0-5.183-.973-7.83-2.739-3.328-2.22-7.886-5.261-16.154-5.261-8.273 0-12.834 3.04-16.165 5.259-2.653 1.768-4.114 2.741-7.848 2.741s-5.195-.974-7.848-2.741c-3.331-2.219-7.892-5.259-16.165-5.259-8.271 0-12.831 3.04-16.161 5.259-2.651 1.767-4.111 2.741-7.841 2.741-3.726 0-5.185-.973-7.833-2.74-3.329-2.22-7.888-5.26-16.157-5.26-8.271 0-12.832 3.04-16.162 5.259-2.651 1.767-4.112 2.741-7.843 2.741-3.723 0-5.181-.973-7.828-2.739-3.328-2.22-7.886-5.261-16.154-5.261-8.27 0-12.829 3.04-16.158 5.26-2.65 1.767-4.109 2.74-7.837 2.74-3.718 0-5.175-.973-7.819-2.738-3.327-2.221-7.882-5.262-16.148-5.262-8.27 0-12.829 3.04-16.158 5.26-2.649 1.767-4.109 2.74-7.836 2.74-3.718 0-5.175-.973-7.819-2.738-3.327-2.221-7.882-5.263-16.148-5.263-8.262 0-12.816 3.042-16.141 5.264-2.642 1.764-4.096 2.736-7.809 2.736-3.72 0-5.177-.973-7.822-2.738C28.323 335.042 23.766 332 15.5 332c-.169 0-.334.014-.5.025v-41.051c.167.011.333.025.5.025a7.51 7.51 0 0 0 7.5-7.5c0-1.97-.8-3.91-2.2-5.3a7.528 7.528 0 0 0-5.3-2.2c-.167 0-.333.014-.5.025v-17.05c.166.011.331.025.5.025 9.607.001 18.218-4.327 24-11.13zM448 364.026c-.166-.011-.331-.025-.5-.025-8.281 0-12.848 3.037-16.183 5.255-2.662 1.77-4.128 2.745-7.877 2.745s-5.215-.975-7.876-2.745c-3.335-2.218-7.902-5.255-16.183-5.255-8.274 0-12.836 3.039-16.168 5.258-2.654 1.768-4.117 2.742-7.853 2.742-3.734 0-5.196-.974-7.849-2.742-3.331-2.219-7.893-5.258-16.166-5.258s-12.834 3.04-16.165 5.259c-2.653 1.768-4.114 2.741-7.847 2.741-3.724 0-5.183-.973-7.83-2.739-3.328-2.22-7.886-5.261-16.154-5.261-8.273 0-12.834 3.04-16.165 5.259-2.653 1.768-4.114 2.741-7.848 2.741s-5.195-.974-7.848-2.741c-3.331-2.219-7.892-5.259-16.165-5.259-8.271 0-12.831 3.04-16.161 5.259-2.651 1.767-4.111 2.741-7.841 2.741-3.726 0-5.185-.973-7.833-2.74-3.329-2.22-7.888-5.26-16.157-5.26-8.271 0-12.832 3.04-16.162 5.259-2.651 1.767-4.112 2.741-7.843 2.741-3.723 0-5.181-.973-7.828-2.739-3.328-2.22-7.886-5.261-16.154-5.261-8.27 0-12.829 3.04-16.158 5.26-2.65 1.767-4.109 2.74-7.837 2.74-3.718 0-5.175-.973-7.819-2.738-3.327-2.221-7.882-5.262-16.148-5.262-8.27 0-12.829 3.04-16.158 5.26-2.649 1.767-4.109 2.74-7.836 2.74-3.718 0-5.175-.973-7.819-2.738-3.327-2.221-7.882-5.263-16.148-5.263-8.262 0-12.816 3.042-16.141 5.264-2.642 1.764-4.096 2.736-7.809 2.736-3.72 0-5.177-.973-7.822-2.738C28.323 367.042 23.766 364 15.5 364c-.169 0-.334.014-.5.025v-17.05c.166.011.331.025.5.025 3.72 0 5.177.973 7.822 2.738 3.327 2.221 7.883 5.262 16.149 5.262 8.262 0 12.816-3.042 16.141-5.264 2.642-1.764 4.096-2.736 7.809-2.736 3.718 0 5.175.973 7.819 2.738 3.327 2.221 7.882 5.262 16.147 5.262 8.27 0 12.829-3.04 16.158-5.26 2.649-1.767 4.109-2.74 7.836-2.74 3.719 0 5.175.973 7.82 2.738 3.327 2.221 7.882 5.262 16.147 5.262 8.27 0 12.83-3.04 16.159-5.26 2.65-1.767 4.109-2.74 7.837-2.74 3.724 0 5.182.973 7.829 2.739 3.328 2.221 7.886 5.261 16.153 5.261 8.271 0 12.832-3.04 16.162-5.259 2.651-1.767 4.112-2.741 7.843-2.741 3.726 0 5.185.973 7.833 2.74 3.329 2.22 7.888 5.26 16.157 5.26 8.271 0 12.832-3.04 16.161-5.259 2.651-1.767 4.111-2.741 7.841-2.741 3.733 0 5.194.974 7.847 2.741 3.331 2.219 7.892 5.259 16.165 5.259s12.834-3.04 16.165-5.259c2.653-1.768 4.114-2.741 7.848-2.741 3.724 0 5.183.973 7.83 2.739 3.328 2.22 7.886 5.261 16.154 5.261 8.273 0 12.834-3.04 16.165-5.259 2.653-1.768 4.114-2.741 7.847-2.741 3.734 0 5.196.974 7.849 2.742 3.331 2.219 7.893 5.258 16.166 5.258 8.274 0 12.837-3.039 16.168-5.258 2.654-1.768 4.117-2.742 7.853-2.742 3.749 0 5.215.975 7.876 2.745 3.335 2.218 7.902 5.255 16.183 5.255 8.281 0 12.849-3.037 16.184-5.255 2.662-1.77 4.128-2.745 7.876-2.745.169 0 .334-.014.5-.025v17.051zM15 378.975c.166.011.331.025.5.025 3.72 0 5.177.973 7.822 2.738 3.327 2.221 7.883 5.262 16.149 5.262 8.262 0 12.816-3.042 16.141-5.264 2.642-1.764 4.096-2.736 7.809-2.736 3.718 0 5.175.973 7.819 2.738 3.327 2.221 7.882 5.262 16.147 5.262 8.27 0 12.829-3.04 16.158-5.26 2.649-1.767 4.109-2.74 7.836-2.74 3.719 0 5.175.973 7.82 2.738 3.327 2.221 7.882 5.262 16.147 5.262 8.27 0 12.83-3.04 16.159-5.26 2.65-1.767 4.109-2.74 7.837-2.74 3.724 0 5.182.973 7.829 2.739 3.328 2.221 7.886 5.261 16.153 5.261 8.271 0 12.832-3.04 16.162-5.259 2.651-1.767 4.112-2.741 7.843-2.741 3.726 0 5.185.973 7.833 2.74 3.329 2.22 7.888 5.26 16.157 5.26 8.271 0 12.832-3.04 16.161-5.259 2.651-1.767 4.111-2.741 7.841-2.741 3.733 0 5.194.974 7.847 2.741 3.331 2.219 7.892 5.259 16.165 5.259s12.834-3.04 16.165-5.259c2.653-1.768 4.114-2.741 7.848-2.741 3.724 0 5.183.973 7.83 2.739 3.328 2.22 7.886 5.261 16.154 5.261 8.273 0 12.834-3.04 16.165-5.259 2.653-1.768 4.114-2.741 7.847-2.741 3.734 0 5.196.974 7.849 2.742 3.331 2.219 7.893 5.258 16.166 5.258 8.274 0 12.837-3.039 16.168-5.258 2.654-1.768 4.117-2.742 7.853-2.742 3.749 0 5.215.975 7.876 2.745 3.335 2.218 7.902 5.255 16.183 5.255 8.281 0 12.849-3.037 16.184-5.255 2.662-1.77 4.128-2.745 7.876-2.745.169 0 .334-.014.5-.025V404H15v-25.025zM311 123h33v65h-33v-65zm-96 0h33v65h-33v-65zm-96 0h33v65h-33v-65zm-79.5 80h384c13.509 0 24.5 10.991 24.5 24.5v16.525c-.166-.011-.331-.025-.5-.025-9.098 0-16.5-7.402-16.5-16.5a7.5 7.5 0 0 0-15 0c0 9.098-7.402 16.5-16.5 16.5s-16.5-7.402-16.5-16.5a7.5 7.5 0 0 0-15 0c0 9.098-7.402 16.5-16.5 16.5s-16.5-7.402-16.5-16.5a7.5 7.5 0 0 0-15 0c0 9.098-7.402 16.5-16.5 16.5-9.098 0-16.5-7.402-16.5-16.5a7.5 7.5 0 0 0-15 0c0 9.098-7.402 16.5-16.5 16.5s-16.5-7.402-16.5-16.5a7.5 7.5 0 0 0-15 0c0 9.098-7.402 16.5-16.5 16.5s-16.5-7.402-16.5-16.5a7.5 7.5 0 0 0-15 0c0 9.098-7.402 16.5-16.5 16.5s-16.5-7.402-16.5-16.5a7.5 7.5 0 0 0-15 0c0 9.098-7.402 16.5-16.5 16.5S95 236.598 95 227.5a7.5 7.5 0 0 0-15 0c0 9.098-7.402 16.5-16.5 16.5S47 236.598 47 227.5a7.5 7.5 0 0 0-15 0c0 9.098-7.402 16.5-16.5 16.5-.169 0-.334.014-.5.025V227.5c0-13.509 10.991-24.5 24.5-24.5zM15 436v-17h433v17H15z"></path><path d="M207.5 291c1.97 0 3.91-.8 5.3-2.2 1.4-1.39 2.2-3.33 2.2-5.3 0-1.97-.8-3.91-2.2-5.3a7.528 7.528 0 0 0-5.3-2.2 7.51 7.51 0 0 0-7.5 7.5 7.51 7.51 0 0 0 7.5 7.5zm48 0a7.51 7.51 0 0 0 7.5-7.5c0-1.97-.8-3.91-2.2-5.3a7.528 7.528 0 0 0-5.3-2.2 7.51 7.51 0 0 0-7.5 7.5 7.51 7.51 0 0 0 7.5 7.5zm48 0a7.51 7.51 0 0 0 7.5-7.5 7.51 7.51 0 0 0-7.5-7.5 7.51 7.51 0 0 0-7.5 7.5 7.51 7.51 0 0 0 7.5 7.5zm96 0a7.51 7.51 0 0 0 7.5-7.5 7.51 7.51 0 0 0-7.5-7.5 7.51 7.51 0 0 0-7.5 7.5 7.51 7.51 0 0 0 7.5 7.5zm-48 0a7.51 7.51 0 0 0 7.5-7.5 7.51 7.51 0 0 0-7.5-7.5 7.51 7.51 0 0 0-7.5 7.5c0 1.97.8 3.91 2.2 5.3 1.39 1.4 3.33 2.2 5.3 2.2zm-192 0c1.97 0 3.91-.8 5.3-2.2 1.4-1.39 2.2-3.33 2.2-5.3 0-1.97-.8-3.91-2.2-5.3a7.528 7.528 0 0 0-5.3-2.2 7.51 7.51 0 0 0-7.5 7.5 7.51 7.51 0 0 0 7.5 7.5zm-48 0a7.51 7.51 0 0 0 7.5-7.5c0-1.97-.8-3.91-2.2-5.3a7.528 7.528 0 0 0-5.3-2.2 7.51 7.51 0 0 0-7.5 7.5 7.51 7.51 0 0 0 7.5 7.5zm-48 0a7.51 7.51 0 0 0 7.5-7.5c0-1.97-.8-3.91-2.2-5.3a7.528 7.528 0 0 0-5.3-2.2 7.51 7.51 0 0 0-7.5 7.5 7.51 7.51 0 0 0 7.5 7.5z"></path>
  </symbol><symbol  viewBox='0 0 490.05 490.05' id='check-mark'>
    <path d="M418.275 418.275c95.7-95.7 95.7-250.8 0-346.5s-250.8-95.7-346.5 0-95.7 250.8 0 346.5 250.9 95.7 346.5 0zm-261.1-210.7 55.1 55.1 120.7-120.6 42.7 42.7-120.6 120.6-42.8 42.7-42.7-42.7-55.1-55.1 42.7-42.7z"></path>
  </symbol><symbol  viewBox='0 0 512 512' id='clock'>
    <g id="SVGRepo_iconCarrier"><style>.st0{fill:#fff}</style><path class="st0" d="m181.158 225.346 64.826 50.011.902.517.404.226c5.606 3.122 13.027 1.467 17.975-3.979l.432-.414 79.452-94.002c4.524-5.07 4.599-12.369.198-16.282-4.411-3.922-11.644-2.981-16.15 2.088l-74.268 79.339-57.338-39.928c-5.362-3.95-13.403-2.116-17.947 4.082-4.534 6.18-3.867 14.401 1.514 18.342zm-80.713 30.644c0-3.434.075-6.866.438-10.234H60.188c-.249 3.367-.315 6.8-.315 10.234 0 3.499.066 6.876.315 10.252h40.695c-.363-3.376-.438-6.8-.438-10.252zm71.975-131.193c3.847-2.436 7.774-4.731 11.762-6.772l1.552-.753-20.28-35.215a157.034 157.034 0 0 0-14.814 8.512l20.289 35.234 1.491-1.006zM82.071 165.44l35.23 20.279 8.527-14.795-35.244-20.289a157.37 157.37 0 0 0-8.513 14.805zm311.914 162.374c-2.116 3.998-4.341 7.91-6.844 11.701l-1.015 1.486 35.24 20.288a171.787 171.787 0 0 0 8.582-14.73l-35.15-20.355-.813 1.61zm-275.941-.066-.814-1.543-35.159 20.28c2.502 5.07 5.398 10.008 8.512 14.805l35.244-20.288-1.026-1.486c-2.43-3.792-4.725-7.704-6.757-11.768zm54.376 59.379-1.491-1.015-20.289 35.243c4.798 3.114 9.74 6.02 14.814 8.588l20.28-35.234-1.552-.752c-3.989-2.033-7.916-4.328-11.762-6.83zm153.794-269.911 14.81 8.588 20.284-35.234c-4.793-3.114-9.674-5.954-14.73-8.512l-20.364 35.158zm-80.443 293.905v40.644c3.377.3 6.8.366 10.229.366 3.442 0 6.871-.066 10.238-.366v-41.067h-20.467v.423zm20.467-310.243V60.235c-3.367-.302-6.796-.367-10.238-.367-3.429 0-6.852.065-10.229.367v41.066h20.467v-.423zm59.976 293.896 20.364 35.168a179.775 179.775 0 0 0 14.73-8.588l-20.284-35.243-14.81 8.663zM429.948 165.44c-2.572-5.079-5.465-10.007-8.582-14.805l-35.24 20.289 8.601 14.795 35.221-20.279zm21.878 80.317h-41.113v20.486h41.113c.254-3.376.311-6.8.311-10.252-.001-3.434-.057-6.867-.311-10.234z"></path><path class="st0" d="M256 0C114.606.009.014 114.61.005 256 .014 397.39 114.606 511.99 256 512c141.394-.01 255.986-114.61 255.995-256C511.986 114.61 397.394.009 256 0zm0 478.966c-61.627-.01-117.268-24.926-157.661-65.305C57.964 373.254 33.043 317.617 33.038 256c.005-61.618 24.926-117.263 65.3-157.652C138.732 57.958 194.373 33.042 256 33.033c61.618.01 117.258 24.926 157.661 65.315 40.375 40.389 65.296 96.024 65.3 157.652-.005 61.617-24.926 117.254-65.3 157.661-40.403 40.38-96.043 65.296-157.661 65.305z"></path></g>
  </symbol><symbol  viewBox='0 0 1920 1920' id='email'>
    <path d="M0 1694.235h1920V226H0v1468.235ZM112.941 376.664V338.94H1807.06v37.723L960 1111.233l-847.059-734.57ZM1807.06 526.198v950.513l-351.134-438.89-88.32 70.475 378.353 472.998H174.042l378.353-472.998-88.32-70.475-351.134 438.89V526.198L960 1260.768l847.059-734.57Z" fill-rule="evenodd"></path>
  </symbol><symbol  viewBox='0 0 512 512' id='facebook'>
    <path style="display:inline" d="M283.122 122.174v46.583h83.424l-9.045 74.367h-74.379v268.375h-98.726V243.124h-51.443v-74.367h51.443v-56.302c0-27.82-2.096-41.02 9.725-62.578C205.948 28.32 239.308-.174 297.007.512c57.713.711 82.04 6.263 82.04 6.263l-12.501 79.257s-36.853-9.731-54.942-6.263c-18.065 3.469-28.482 14.597-28.482 42.405z"></path>
  </symbol><symbol  viewBox='0 -1.67 47.336 47.336' id='formal'>
    <g data-name="Group 42" fill="none" stroke="#D0A270" stroke-linecap="round" stroke-linejoin="round" stroke-width="2"><path data-name="Rectangle 17" d="M5.351 19.883h36.633a4.351 4.351 0 0 1 4.351 4.351V42a1 1 0 0 1-1 1H2a1 1 0 0 1-1-1V24.234a4.351 4.351 0 0 1 4.351-4.351Z"></path><path data-name="Path 90" d="M46.335 25.889a3.778 3.778 0 0 1-3.778 3.778h0a3.779 3.779 0 0 1-3.778-3.778 3.778 3.778 0 0 1-3.778 3.778h0a3.779 3.779 0 0 1-3.778-3.778 3.778 3.778 0 0 1-3.778 3.778h0a3.779 3.779 0 0 1-3.778-3.778 3.778 3.778 0 0 1-3.778 3.778h0a3.779 3.779 0 0 1-3.778-3.778 3.778 3.778 0 0 1-3.778 3.778h0a3.779 3.779 0 0 1-3.778-3.778 3.778 3.778 0 0 1-3.778 3.778h0A3.778 3.778 0 0 1 1 25.889"></path><g data-name="Group 41"><path data-name="Rectangle 18" d="M12.606 1h22.122a4.351 4.351 0 0 1 4.351 4.351v13.532a1 1 0 0 1-1 1H9.255a1 1 0 0 1-1-1V5.351A4.351 4.351 0 0 1 12.606 1Z"></path><path data-name="Path 91" d="M38.779 6.434a3.778 3.778 0 0 1-3.778 3.778h0a3.779 3.779 0 0 1-3.778-3.778 3.778 3.778 0 0 1-3.778 3.778h0a3.779 3.779 0 0 1-3.778-3.778 3.778 3.778 0 0 1-3.778 3.778h0a3.779 3.779 0 0 1-3.778-3.778 3.778 3.778 0 0 1-3.778 3.778h0a3.779 3.779 0 0 1-3.778-3.778"></path></g></g>
  </symbol><symbol  viewBox='0 0 370 323' id='heart'>
    <path d="M92.5 1.1c-3.3.5-9.1 1.8-13 3-33.1 10-56.9 31.2-70.7 63.1C2.4 82.1.6 91 .6 109c-.1 21.4 3.3 35.7 12.9 54.5l5.1 10 25.5.3 25.4.2 27.2 27.2c15 15 27.4 27 27.6 26.8.2-.3 2.5-12.5 5.3-27.3l4.9-26.7 21.4.2 21.4.3 14.8 40.3c8.1 22.2 15 40.6 15.2 40.9.8.7 1.3-1.7 5.7-25.7 19.6-108.1 22.8-124.5 23.8-122 .5 1.4 5.1 13.7 10.1 27.5 5.1 13.7 10.4 28 11.7 31.7l2.6 6.8 37 .2 37 .3-5.3 7c-27.6 36.8-77.3 81.4-132.1 118.2l-12.7 8.6-7.3-4.8c-30.3-20-65.5-47.5-91.5-71.3L74.1 221h-8.3l-8.3.1L70 233.2c27.8 26.8 59.1 51.8 95.7 76.5 10.1 6.8 18.6 12.3 19.1 12.3 3.9 0 56.3-37.5 80.2-57.5 17.1-14.3 42.7-38.2 53.3-50 10-11.1 29.4-36.1 36.1-46.8l3.7-5.7-18.8-.1c-10.3-.1-21.3-.3-24.3-.4-3-.1-14.5-.3-25.6-.3l-20.1-.2-13.2-36.3C240.3 81.6 232.7 62 231.9 62c-.3 0-2.9 12.9-5.7 28.7-2.8 15.9-8.8 49.3-13.2 74.3-4.4 25-8.2 45.6-8.4 45.8-.5.4-6.1-14-13.7-35.1l-5.3-14.7h-45.4l-1.6-4.6c-3.9-11.4-8.9-24.4-9.3-24.1-.4.4-3 14.7-8.9 48.7-1.9 11.3-3.7 20.7-4 20.9-.4.4-6.8-5.7-32.7-31.2l-9.9-9.7H25.3l-2.6-5.8c-4.9-11-6.7-16.2-8.7-26.1-3.5-17.1-2.2-33.9 4.1-52.6 14-41.7 44.9-64 88.4-63.8 27.7.1 46.9 8.2 68.7 29.1l9.8 9.4 9.9-9.5c11.5-10.9 15.4-13.8 27-19.7 25.7-12.9 57.9-12.9 84.6 0 30.1 14.6 46.3 41.5 52 86.7l.7 5.3H370v-6.8c0-13.7-5-33.3-12-47.2-20.9-41.5-65.3-65.1-109.8-58.6-20.7 3.1-37.5 10.7-54.6 24.8-4.4 3.8-8.3 6.8-8.6 6.8-.3 0-3.3-2.3-6.5-5.1-25.6-21.8-55.6-31.2-86-26.8z"></path>
  </symbol><symbol  viewBox='0 0 24 24' id='instagram'>
    <path fill-rule="evenodd" clip-rule="evenodd" d="M12 18a6 6 0 1 0 0-12 6 6 0 0 0 0 12Zm0-2a4 4 0 1 0 0-8 4 4 0 0 0 0 8Z"></path><path d="M18 5a1 1 0 1 0 0 2 1 1 0 0 0 0-2Z"></path><path fill-rule="evenodd" clip-rule="evenodd" d="M1.654 4.276C1 5.56 1 7.24 1 10.6v2.8c0 3.36 0 5.04.654 6.324a6 6 0 0 0 2.622 2.622C5.56 23 7.24 23 10.6 23h2.8c3.36 0 5.04 0 6.324-.654a6 6 0 0 0 2.622-2.622C23 18.44 23 16.76 23 13.4v-2.8c0-3.36 0-5.04-.654-6.324a6 6 0 0 0-2.622-2.622C18.44 1 16.76 1 13.4 1h-2.8c-3.36 0-5.04 0-6.324.654a6 6 0 0 0-2.622 2.622ZM13.4 3h-2.8c-1.713 0-2.878.002-3.778.075-.877.072-1.325.202-1.638.361a4 4 0 0 0-1.748 1.748c-.16.313-.29.761-.36 1.638C3.001 7.722 3 8.887 3 10.6v2.8c0 1.713.002 2.878.075 3.778.072.877.202 1.325.361 1.638a4 4 0 0 0 1.748 1.748c.313.16.761.29 1.638.36.9.074 2.065.076 3.778.076h2.8c1.713 0 2.878-.002 3.778-.075.877-.072 1.325-.202 1.638-.361a4 4 0 0 0 1.748-1.748c.16-.313.29-.761.36-1.638.074-.9.076-2.065.076-3.778v-2.8c0-1.713-.002-2.878-.075-3.778-.072-.877-.202-1.325-.361-1.638a4 4 0 0 0-1.748-1.748c-.313-.16-.761-.29-1.638-.36C16.278 3.001 15.113 3 13.4 3Z"></path>
  </symbol><symbol  viewBox='0 0 20 20' id='linkedin'>
    <path d="M20 20h-4v-6.999c0-1.92-.847-2.991-2.366-2.991-1.653 0-2.634 1.116-2.634 2.991V20H7V7h4v1.462s1.255-2.202 4.083-2.202C17.912 6.26 20 7.986 20 11.558V20ZM2.442 4.921A2.451 2.451 0 0 1 0 2.46 2.451 2.451 0 0 1 2.442 0a2.451 2.451 0 0 1 2.441 2.46 2.45 2.45 0 0 1-2.441 2.461ZM0 20h5V7H0v13Z" fill-rule="evenodd"></path>
  </symbol><symbol  viewBox='0 0 296.999 296.999' id='map'>
    <path d="M141.914 185.802a9.952 9.952 0 0 0 6.587 2.486 9.95 9.95 0 0 0 6.587-2.486c2.385-2.101 58.391-52.021 58.391-103.793 0-35.842-29.148-65.002-64.977-65.002-35.83 0-64.979 29.16-64.979 65.002-.002 51.772 56.006 101.692 58.391 103.793zm6.587-120.777c9.302 0 16.845 7.602 16.845 16.984 0 9.381-7.543 16.984-16.845 16.984-9.305 0-16.847-7.604-16.847-16.984 0-9.382 7.542-16.984 16.847-16.984z"></path><path d="m273.357 185.773-7.527-26.377a9.966 9.966 0 0 0-9.583-7.232h-53.719a225.332 225.332 0 0 1-6.158 8.699c-15.057 20.23-30.364 33.914-32.061 35.41a23.904 23.904 0 0 1-15.808 5.967 23.91 23.91 0 0 1-15.81-5.969c-1.695-1.494-17.004-15.18-32.06-35.408a226.109 226.109 0 0 1-6.158-8.699h-53.72a9.966 9.966 0 0 0-9.583 7.232l-8.971 31.436 200.529 36.73 50.629-41.789zm23.26 81.518-19.23-67.396-95.412 80.098h105.06a9.964 9.964 0 0 0 9.582-12.702zM48.793 209.888l-30.44-5.576-17.97 62.979a9.968 9.968 0 0 0 9.583 12.701h38.827v-70.104zm13.953 2.557v67.547h97.527l48.584-40.785z"></path>
  </symbol><symbol  viewBox='0 0 24 24' id='phone'>
    <path d="M3 5.5C3 14.06 9.94 21 18.5 21c.386 0 .77-.014 1.148-.042.435-.032.653-.048.851-.162a1.06 1.06 0 0 0 .402-.432c.099-.206.099-.446.099-.926v-2.817c0-.404 0-.606-.067-.779a.999.999 0 0 0-.277-.396c-.14-.122-.33-.191-.71-.329l-3.206-1.166c-.441-.16-.662-.24-.872-.227a1 1 0 0 0-.513.182c-.171.121-.292.322-.534.725L14 16a12.1 12.1 0 0 1-6-6l1.369-.821c.402-.242.604-.363.725-.534a1 1 0 0 0 .182-.513c.014-.21-.066-.43-.227-.872L8.883 4.053c-.138-.38-.207-.569-.329-.709a1 1 0 0 0-.396-.278C7.985 3 7.783 3 7.379 3H4.562c-.48 0-.72 0-.926.1a1.06 1.06 0 0 0-.432.401c-.114.198-.13.416-.162.85C3.014 4.732 3 5.115 3 5.5Z" stroke-width="2" stroke-linecap="round" stroke-linejoin="round"></path>
  </symbol><symbol  viewBox='0 0 47.94 47.94' id='star'>
    <path style="fill:#d0a270" d="m26.285 2.486 5.407 10.956a2.58 2.58 0 0 0 1.944 1.412l12.091 1.757c2.118.308 2.963 2.91 1.431 4.403l-8.749 8.528a2.582 2.582 0 0 0-.742 2.285l2.065 12.042c.362 2.109-1.852 3.717-3.746 2.722l-10.814-5.685a2.585 2.585 0 0 0-2.403 0l-10.814 5.685c-1.894.996-4.108-.613-3.746-2.722l2.065-12.042a2.582 2.582 0 0 0-.742-2.285L.783 21.014c-1.532-1.494-.687-4.096 1.431-4.403l12.091-1.757a2.58 2.58 0 0 0 1.944-1.412l5.407-10.956c.946-1.919 3.682-1.919 4.629 0z"></path>
  </symbol><symbol  viewBox='0 0 225 225' id='truck'>
    <path d="M56 61.6v12.5l-10-.3-10-.3V79h20v14H17v6h39v12.9l-14.2.3-14.3.3-.3 2.7-.3 2.8H56v42h5c4.8 0 5 .1 6.5 3.7 5.4 12.9 20.2 16 30.1 6.4 1.9-1.9 3.8-4.8 4.2-6.5l.8-3.1 29.5-.3 29.4-.2 1.8 4.5c6.1 14.7 26.2 15 32.9.5 2.3-5 2.3-5 7-5h4.8v-55.6l-14.3-14.2L179.3 76H150V49H56v12.6zM144 93v38H62v-13h24.1l-.3-2.8-.3-2.7-11.7-.3-11.8-.3V99h5.5c5.4 0 5.5 0 5.5-3s-.1-3-5.5-3H62V79h19v-5.5H62.5l-.3-9.3-.3-9.2H144v38zm45.8 2.3 13.2 13.3-.2 22.9c-.3 22.7-.3 23-2.5 23.3-1.6.2-2.4-.4-3.2-3-2.8-8.6-12.8-14-21.4-11.7-6 1.6-10.2 5.1-12.3 10.4l-1.9 4.5h-58.4l-1.9-4.3c-6.5-14.7-26.2-14.9-33.1-.3-1.5 3.2-2.7 4.6-4.1 4.6-1.9 0-2-.7-2-9v-9h88V82h26.5l13.3 13.3zM89.5 146.4c11.4 4.8 8.8 22-3.6 23.3-3.3.3-5.2-.1-7.7-1.7-3.2-2-6.2-7.1-6.2-10.7 0-3.3 3.6-8.6 7.1-10.5 4.1-2.2 5.9-2.2 10.4-.4zm95.5.1c4.6 2.4 7 6.2 7 11.1 0 9.3-10.5 15.4-18.3 10.5-6.3-3.9-7.8-12.5-3-18.1 4.2-5 9-6.2 14.3-3.5z"></path><path d="M160 108.5V125h33v-12.5l-10.3-10.3L172.5 92H160v16.5zm18.7-2.3c5.5 5.5 8.3 9 8.3 10.5 0 2.3-.2 2.3-11 2.3h-11V98h2.7c2.1 0 4.7 2 11 8.2z"></path>
  </symbol><symbol  viewBox='0 -2 20 20' id='twitter'>
    <path d="M6.29 16c7.547 0 11.675-6.156 11.675-11.495 0-.175 0-.349-.012-.522A8.265 8.265 0 0 0 20 1.89a8.273 8.273 0 0 1-2.356.637A4.07 4.07 0 0 0 19.448.293a8.303 8.303 0 0 1-2.606.98 4.153 4.153 0 0 0-5.806-.175 4.006 4.006 0 0 0-1.187 3.86A11.717 11.717 0 0 1 1.392.738 4.005 4.005 0 0 0 2.663 6.13 4.122 4.122 0 0 1 .8 5.625v.051C.801 7.6 2.178 9.255 4.092 9.636a4.144 4.144 0 0 1-1.852.069c.537 1.646 2.078 2.773 3.833 2.806A8.315 8.315 0 0 1 0 14.185a11.754 11.754 0 0 0 6.29 1.812" fill-rule="evenodd"></path>
  </symbol><symbol  viewBox='0 0 421.885 421.885' id='wedding'>
    <path d="M387.893 322.448h-28.888V221.742a7.5 7.5 0 0 0-7.5-7.5h-37.068v-78.163a7.5 7.5 0 0 0-7.5-7.5h-39.211V70.894a7.5 7.5 0 0 0-7.5-7.5h-25.115c5.102-4.491 9.221-9.201 12.3-14.108 7.484-11.931 7.126-22.003 5.508-28.351C249.776 8.608 239.236 0 227.287 0c-5.991 0-11.646 2.228-16.349 6.308C206.237 2.228 200.584 0 194.594 0c-11.944 0-22.482 8.608-25.624 20.933-1.619 6.349-1.979 16.421 5.502 28.351 3.077 4.908 7.195 9.619 12.296 14.11H161.66a7.5 7.5 0 0 0-7.5 7.5v57.686h-39.211a7.5 7.5 0 0 0-7.5 7.5v78.163H70.38a7.5 7.5 0 0 0-7.5 7.5v100.706H33.992a7.499 7.499 0 0 0-7.5 7.5 7.5 7.5 0 0 0 7.5 7.5h67.179c12.992 18.596 49.129 28.293 82.147 31.465v11.582l-37.056 27.9a7.499 7.499 0 0 0 4.511 13.49h120.34a7.5 7.5 0 0 0 4.51-13.492l-37.058-27.898v-11.582c33.018-3.172 69.156-12.869 82.148-31.465h67.179a7.5 7.5 0 0 0 7.5-7.5 7.498 7.498 0 0 0-7.499-7.501zM169.159 78.394h83.566v10.918h-83.566V78.394zm51.538 77.876c-4.102 6.154-6.134 8.66-9.758 8.66-3.626 0-5.657-2.506-9.76-8.66-2.848-4.272-6.402-9.571-11.935-12.691h43.387c-5.532 3.121-9.087 8.42-11.934 12.691zm32.029-27.691H169.16v-24.268h83.566v24.268zm-130.277 32.732c.689.954 1.43 2.037 2.258 3.279 4.315 6.474 10.226 15.34 22.238 15.34 12.013 0 17.923-8.866 22.238-15.34.721-1.08 1.374-2.042 1.986-2.904 1.86-2.616 3.318-4.252 4.922-5.082.875-.453 1.794-.674 2.85-.674 3.624 0 5.655 2.507 9.758 8.66 4.315 6.474 10.226 15.34 22.24 15.34 12.013 0 17.923-8.866 22.238-15.34.287-.43.561-.837.828-1.232 1.552-2.287 2.807-3.985 4.006-5.179 1.556-1.549 3.021-2.249 4.924-2.249 3.626 0 5.657 2.507 9.76 8.66 4.316 6.474 10.227 15.34 22.242 15.34 12.014 0 17.925-8.866 22.24-15.34.828-1.242 1.57-2.33 2.26-3.284v52.936H122.449v-52.931zm216.444 67.931c-7.196 2.803-12.037 7.731-16.185 11.98-5.52 5.653-9.507 9.738-18.062 9.738-8.555 0-12.542-4.085-18.062-9.738-4.144-4.244-8.976-9.169-16.152-11.98h68.461zm-54.196-72.972c-4.103 6.154-6.134 8.66-9.76 8.66-3.627 0-5.658-2.506-9.762-8.661-2.849-4.271-6.403-9.57-11.936-12.69h43.427c-5.55 3.112-9.118 8.413-11.969 12.691zm-116.06-12.691c-5.532 3.121-9.087 8.42-11.934 12.691-4.103 6.154-6.134 8.66-9.758 8.66-3.624 0-5.655-2.506-9.758-8.66-2.849-4.272-6.402-9.574-11.939-12.691h43.389zm-17.197 85.663c-7.176 2.811-12.008 7.736-16.15 11.98-5.519 5.653-9.506 9.738-18.059 9.738s-12.539-4.085-18.058-9.738c-4.148-4.25-8.995-9.177-16.195-11.98h68.462zm41.436 11.981c-4.143-4.244-8.975-9.169-16.15-11.98h68.42c-7.176 2.811-12.008 7.736-16.15 11.98-5.518 5.653-9.506 9.738-18.059 9.738-3.295 0-5.909-.61-8.197-1.679-2.449-1.145-4.526-2.817-6.649-4.845-1.044-.995-2.098-2.07-3.215-3.214zM183.504 24.64c1.425-5.586 6.089-9.64 11.09-9.64 3.807 0 7.239 2.347 9.928 6.785a7.5 7.5 0 0 0 6.414 3.615h.001a7.499 7.499 0 0 0 6.414-3.613c2.69-4.44 6.127-6.787 9.937-6.787 5.005 0 9.672 4.055 11.096 9.64 2.347 9.205-3.78 23.713-27.445 37.636-23.656-13.922-29.782-28.432-27.435-37.636zm47.641 329.845c-.026 0-.053-.004-.079-.004a7.5 7.5 0 0 0-7.5 7.5v22.254a7.5 7.5 0 0 0 2.989 5.992l22.126 16.658h-75.478l22.125-16.658a7.5 7.5 0 0 0 2.989-5.992v-22.254c0-4.143-3.357-7.5-7.5-7.5-.026 0-.052.004-.078.004-30.747-2.211-53.932-9.186-67.092-17.037h174.598c-13.16 7.851-36.351 14.826-67.1 17.037zm112.86-32.037H77.88v-79.101c3.996 1.652 6.956 4.662 10.559 8.354 6.201 6.354 13.92 14.261 28.792 14.261 14.873 0 22.591-7.908 28.793-14.261 5.519-5.654 9.506-9.739 18.059-9.739 8.554 0 12.541 4.085 18.06 9.739 6.202 6.354 13.921 14.261 28.794 14.261 14.873 0 22.592-7.908 28.794-14.261 5.519-5.654 9.506-9.739 18.059-9.739 8.556 0 12.543 4.085 18.063 9.739 6.202 6.354 13.921 14.261 28.795 14.261s22.593-7.908 28.795-14.261c3.605-3.692 6.564-6.709 10.564-8.359v79.106z"></path><path d="M176.091 156.605c-1.604.83-3.061 2.466-4.922 5.082 1.407-1.429 2.795-2.882 4.191-4.339.243-.252.486-.499.731-.743zm57.914 6.753c1.307-1.82 2.611-3.613 4.006-5.179-1.199 1.194-2.454 2.892-4.006 5.179z"></path>
  </symbol><symbol  viewBox='0 -3 20 20' id='youtube'>
    <path d="M7.988 9.586V3.974c1.993.938 3.536 1.843 5.36 2.82-1.505.834-3.367 1.77-5.36 2.792m11.103-8.403c-.344-.453-.93-.805-1.553-.922-1.833-.348-13.267-.349-15.099 0-.5.094-.945.32-1.328.673C-.5 2.429.005 10.452.393 11.75c.164.562.375.968.64 1.235.343.352.812.594 1.351.703 1.51.312 9.284.486 15.122.047a2.62 2.62 0 0 0 1.39-.712c1.49-1.49 1.388-9.962.195-11.841" fill="#fff" fill-rule="evenodd" stroke="none"></path>
  </symbol></svg>